<mxfile host="app.diagrams.net" modified="2024-06-28T15:14:27.916Z" agent="Mozilla/5.0 (Windows NT 10.0; Win64; x64) AppleWebKit/537.36 (KHTML, like Gecko) Chrome/123.0.0.0 Safari/537.36 OPR/109.0.0.0" etag="g_OGpzroCbQxOx6m6rsB" version="24.6.3" type="device">
  <diagram name="Page-1" id="TgjlBIyjMRQV4J3gXkrl">
    <mxGraphModel dx="3360" dy="1462" grid="1" gridSize="10" guides="1" tooltips="1" connect="1" arrows="1" fold="1" page="1" pageScale="1" pageWidth="827" pageHeight="1169" math="0" shadow="0">
      <root>
        <mxCell id="0" />
        <mxCell id="1" parent="0" />
        <mxCell id="oZL3xkJhQJ-XLGrvxhA8-105" style="edgeStyle=orthogonalEdgeStyle;rounded=0;orthogonalLoop=1;jettySize=auto;html=1;exitX=0.25;exitY=0;exitDx=0;exitDy=0;entryX=0.687;entryY=-0.006;entryDx=0;entryDy=0;entryPerimeter=0;" parent="1" source="oZL3xkJhQJ-XLGrvxhA8-41" edge="1">
          <mxGeometry relative="1" as="geometry">
            <mxPoint x="569.9200000000001" y="439.0160000000001" as="targetPoint" />
            <Array as="points">
              <mxPoint x="-240" y="270" />
              <mxPoint x="570" y="270" />
            </Array>
          </mxGeometry>
        </mxCell>
        <mxCell id="8kMF_SDLe7C6IxDsf46V-1" value="Sistema" style="swimlane;fontStyle=1;align=center;verticalAlign=top;childLayout=stackLayout;horizontal=1;startSize=26;horizontalStack=0;resizeParent=1;resizeParentMax=0;resizeLast=0;collapsible=1;marginBottom=0;whiteSpace=wrap;html=1;" vertex="1" parent="1">
          <mxGeometry x="-120" y="800" width="310" height="276" as="geometry" />
        </mxCell>
        <mxCell id="8kMF_SDLe7C6IxDsf46V-3" value="" style="line;strokeWidth=1;fillColor=none;align=left;verticalAlign=middle;spacingTop=-1;spacingLeft=3;spacingRight=3;rotatable=0;labelPosition=right;points=[];portConstraint=eastwest;strokeColor=inherit;" vertex="1" parent="8kMF_SDLe7C6IxDsf46V-1">
          <mxGeometry y="26" width="310" height="8" as="geometry" />
        </mxCell>
        <mxCell id="8kMF_SDLe7C6IxDsf46V-87" value="+ &amp;lt;create&amp;gt; Sistema()" style="text;strokeColor=none;fillColor=none;align=left;verticalAlign=top;spacingLeft=4;spacingRight=4;overflow=hidden;rotatable=0;points=[[0,0.5],[1,0.5]];portConstraint=eastwest;whiteSpace=wrap;html=1;" vertex="1" parent="8kMF_SDLe7C6IxDsf46V-1">
          <mxGeometry y="34" width="310" height="26" as="geometry" />
        </mxCell>
        <mxCell id="8kMF_SDLe7C6IxDsf46V-88" value="+ registrarTren(marca: String, nroSerie: String, kms: int, modelo: ModelofechaIncorp: LocalDate):Tren" style="text;strokeColor=none;fillColor=none;align=left;verticalAlign=top;spacingLeft=4;spacingRight=4;overflow=hidden;rotatable=0;points=[[0,0.5],[1,0.5]];portConstraint=eastwest;whiteSpace=wrap;html=1;" vertex="1" parent="8kMF_SDLe7C6IxDsf46V-1">
          <mxGeometry y="60" width="310" height="40" as="geometry" />
        </mxCell>
        <mxCell id="8kMF_SDLe7C6IxDsf46V-4" value="+ registrarPlanMantenimiento(version:String):PlanMantenimiento" style="text;strokeColor=none;fillColor=none;align=left;verticalAlign=top;spacingLeft=4;spacingRight=4;overflow=hidden;rotatable=0;points=[[0,0.5],[1,0.5]];portConstraint=eastwest;whiteSpace=wrap;html=1;" vertex="1" parent="8kMF_SDLe7C6IxDsf46V-1">
          <mxGeometry y="100" width="310" height="50" as="geometry" />
        </mxCell>
        <mxCell id="8kMF_SDLe7C6IxDsf46V-90" value="+ registrarTareaRealizada(fecha: LocalDate, tarea: Tarea, tren: Tren, descripcion: String):TareaRealizada" style="text;strokeColor=none;fillColor=none;align=left;verticalAlign=top;spacingLeft=4;spacingRight=4;overflow=hidden;rotatable=0;points=[[0,0.5],[1,0.5]];portConstraint=eastwest;whiteSpace=wrap;html=1;" vertex="1" parent="8kMF_SDLe7C6IxDsf46V-1">
          <mxGeometry y="150" width="310" height="54" as="geometry" />
        </mxCell>
        <mxCell id="8kMF_SDLe7C6IxDsf46V-89" value="+ obtenerCostoTareasRealizadasMes(String mes): double" style="text;strokeColor=none;fillColor=none;align=left;verticalAlign=top;spacingLeft=4;spacingRight=4;overflow=hidden;rotatable=0;points=[[0,0.5],[1,0.5]];portConstraint=eastwest;whiteSpace=wrap;html=1;" vertex="1" parent="8kMF_SDLe7C6IxDsf46V-1">
          <mxGeometry y="204" width="310" height="32" as="geometry" />
        </mxCell>
        <mxCell id="8kMF_SDLe7C6IxDsf46V-91" value="+ obtener5PlanesMantenimientoMasCostosos(): PlanMantenimiento[*]" style="text;strokeColor=none;fillColor=none;align=left;verticalAlign=top;spacingLeft=4;spacingRight=4;overflow=hidden;rotatable=0;points=[[0,0.5],[1,0.5]];portConstraint=eastwest;whiteSpace=wrap;html=1;" vertex="1" parent="8kMF_SDLe7C6IxDsf46V-1">
          <mxGeometry y="236" width="310" height="40" as="geometry" />
        </mxCell>
        <mxCell id="8kMF_SDLe7C6IxDsf46V-5" value="TareaRealizada" style="swimlane;fontStyle=1;align=center;verticalAlign=top;childLayout=stackLayout;horizontal=1;startSize=26;horizontalStack=0;resizeParent=1;resizeParentMax=0;resizeLast=0;collapsible=1;marginBottom=0;whiteSpace=wrap;html=1;" vertex="1" parent="1">
          <mxGeometry x="370" y="899" width="240" height="140" as="geometry" />
        </mxCell>
        <mxCell id="8kMF_SDLe7C6IxDsf46V-20" value="- fecha: LocalDate" style="text;strokeColor=none;fillColor=none;align=left;verticalAlign=top;spacingLeft=4;spacingRight=4;overflow=hidden;rotatable=0;points=[[0,0.5],[1,0.5]];portConstraint=eastwest;whiteSpace=wrap;html=1;" vertex="1" parent="8kMF_SDLe7C6IxDsf46V-5">
          <mxGeometry y="26" width="240" height="26" as="geometry" />
        </mxCell>
        <mxCell id="8kMF_SDLe7C6IxDsf46V-6" value="- descripcion: String" style="text;strokeColor=none;fillColor=none;align=left;verticalAlign=top;spacingLeft=4;spacingRight=4;overflow=hidden;rotatable=0;points=[[0,0.5],[1,0.5]];portConstraint=eastwest;whiteSpace=wrap;html=1;" vertex="1" parent="8kMF_SDLe7C6IxDsf46V-5">
          <mxGeometry y="52" width="240" height="26" as="geometry" />
        </mxCell>
        <mxCell id="8kMF_SDLe7C6IxDsf46V-7" value="" style="line;strokeWidth=1;fillColor=none;align=left;verticalAlign=middle;spacingTop=-1;spacingLeft=3;spacingRight=3;rotatable=0;labelPosition=right;points=[];portConstraint=eastwest;strokeColor=inherit;" vertex="1" parent="8kMF_SDLe7C6IxDsf46V-5">
          <mxGeometry y="78" width="240" height="8" as="geometry" />
        </mxCell>
        <mxCell id="8kMF_SDLe7C6IxDsf46V-8" value="+ &amp;lt;create&amp;gt; TareaRealiada(fecha: LocalDate, tarea: Tarea, tren: Tren, descripcion: String)" style="text;strokeColor=none;fillColor=none;align=left;verticalAlign=top;spacingLeft=4;spacingRight=4;overflow=hidden;rotatable=0;points=[[0,0.5],[1,0.5]];portConstraint=eastwest;whiteSpace=wrap;html=1;" vertex="1" parent="8kMF_SDLe7C6IxDsf46V-5">
          <mxGeometry y="86" width="240" height="54" as="geometry" />
        </mxCell>
        <mxCell id="8kMF_SDLe7C6IxDsf46V-60" style="edgeStyle=orthogonalEdgeStyle;rounded=0;orthogonalLoop=1;jettySize=auto;html=1;exitX=0.5;exitY=0;exitDx=0;exitDy=0;entryX=0.5;entryY=1;entryDx=0;entryDy=0;" edge="1" parent="1" source="8kMF_SDLe7C6IxDsf46V-9" target="8kMF_SDLe7C6IxDsf46V-25">
          <mxGeometry relative="1" as="geometry" />
        </mxCell>
        <mxCell id="8kMF_SDLe7C6IxDsf46V-9" value="Tren" style="swimlane;fontStyle=1;align=center;verticalAlign=top;childLayout=stackLayout;horizontal=1;startSize=26;horizontalStack=0;resizeParent=1;resizeParentMax=0;resizeLast=0;collapsible=1;marginBottom=0;whiteSpace=wrap;html=1;" vertex="1" parent="1">
          <mxGeometry x="670" y="640" width="230" height="190" as="geometry" />
        </mxCell>
        <mxCell id="8kMF_SDLe7C6IxDsf46V-10" value="- marca: String" style="text;strokeColor=none;fillColor=none;align=left;verticalAlign=top;spacingLeft=4;spacingRight=4;overflow=hidden;rotatable=0;points=[[0,0.5],[1,0.5]];portConstraint=eastwest;whiteSpace=wrap;html=1;" vertex="1" parent="8kMF_SDLe7C6IxDsf46V-9">
          <mxGeometry y="26" width="230" height="26" as="geometry" />
        </mxCell>
        <mxCell id="8kMF_SDLe7C6IxDsf46V-18" value="- nroSerie: String" style="text;strokeColor=none;fillColor=none;align=left;verticalAlign=top;spacingLeft=4;spacingRight=4;overflow=hidden;rotatable=0;points=[[0,0.5],[1,0.5]];portConstraint=eastwest;whiteSpace=wrap;html=1;" vertex="1" parent="8kMF_SDLe7C6IxDsf46V-9">
          <mxGeometry y="52" width="230" height="26" as="geometry" />
        </mxCell>
        <mxCell id="8kMF_SDLe7C6IxDsf46V-17" value="- kms: int" style="text;strokeColor=none;fillColor=none;align=left;verticalAlign=top;spacingLeft=4;spacingRight=4;overflow=hidden;rotatable=0;points=[[0,0.5],[1,0.5]];portConstraint=eastwest;whiteSpace=wrap;html=1;" vertex="1" parent="8kMF_SDLe7C6IxDsf46V-9">
          <mxGeometry y="78" width="230" height="26" as="geometry" />
        </mxCell>
        <mxCell id="8kMF_SDLe7C6IxDsf46V-19" value="- fechaIncorp: LocalDate" style="text;strokeColor=none;fillColor=none;align=left;verticalAlign=top;spacingLeft=4;spacingRight=4;overflow=hidden;rotatable=0;points=[[0,0.5],[1,0.5]];portConstraint=eastwest;whiteSpace=wrap;html=1;" vertex="1" parent="8kMF_SDLe7C6IxDsf46V-9">
          <mxGeometry y="104" width="230" height="26" as="geometry" />
        </mxCell>
        <mxCell id="8kMF_SDLe7C6IxDsf46V-11" value="" style="line;strokeWidth=1;fillColor=none;align=left;verticalAlign=middle;spacingTop=-1;spacingLeft=3;spacingRight=3;rotatable=0;labelPosition=right;points=[];portConstraint=eastwest;strokeColor=inherit;" vertex="1" parent="8kMF_SDLe7C6IxDsf46V-9">
          <mxGeometry y="130" width="230" height="8" as="geometry" />
        </mxCell>
        <mxCell id="8kMF_SDLe7C6IxDsf46V-12" value="+ &amp;lt;create&amp;gt; Tren(marca: String, nroSerie: String, kms: int, modelo: ModelofechaIncorp: LocalDate)" style="text;strokeColor=none;fillColor=none;align=left;verticalAlign=top;spacingLeft=4;spacingRight=4;overflow=hidden;rotatable=0;points=[[0,0.5],[1,0.5]];portConstraint=eastwest;whiteSpace=wrap;html=1;" vertex="1" parent="8kMF_SDLe7C6IxDsf46V-9">
          <mxGeometry y="138" width="230" height="52" as="geometry" />
        </mxCell>
        <mxCell id="8kMF_SDLe7C6IxDsf46V-72" style="edgeStyle=orthogonalEdgeStyle;rounded=0;orthogonalLoop=1;jettySize=auto;html=1;exitX=0.25;exitY=0;exitDx=0;exitDy=0;" edge="1" parent="1" source="8kMF_SDLe7C6IxDsf46V-13">
          <mxGeometry relative="1" as="geometry">
            <mxPoint x="720.2" y="1040" as="targetPoint" />
          </mxGeometry>
        </mxCell>
        <mxCell id="8kMF_SDLe7C6IxDsf46V-73" style="edgeStyle=orthogonalEdgeStyle;rounded=0;orthogonalLoop=1;jettySize=auto;html=1;exitX=0.75;exitY=0;exitDx=0;exitDy=0;startArrow=classic;startFill=1;endArrow=none;endFill=0;" edge="1" parent="1" source="8kMF_SDLe7C6IxDsf46V-13">
          <mxGeometry relative="1" as="geometry">
            <mxPoint x="850.2" y="1040" as="targetPoint" />
          </mxGeometry>
        </mxCell>
        <mxCell id="8kMF_SDLe7C6IxDsf46V-13" value="PlanMantenimiento" style="swimlane;fontStyle=1;align=center;verticalAlign=top;childLayout=stackLayout;horizontal=1;startSize=26;horizontalStack=0;resizeParent=1;resizeParentMax=0;resizeLast=0;collapsible=1;marginBottom=0;whiteSpace=wrap;html=1;" vertex="1" parent="1">
          <mxGeometry x="655" y="1180" width="260" height="86" as="geometry" />
        </mxCell>
        <mxCell id="8kMF_SDLe7C6IxDsf46V-14" value="- version: String" style="text;strokeColor=none;fillColor=none;align=left;verticalAlign=top;spacingLeft=4;spacingRight=4;overflow=hidden;rotatable=0;points=[[0,0.5],[1,0.5]];portConstraint=eastwest;whiteSpace=wrap;html=1;" vertex="1" parent="8kMF_SDLe7C6IxDsf46V-13">
          <mxGeometry y="26" width="260" height="26" as="geometry" />
        </mxCell>
        <mxCell id="8kMF_SDLe7C6IxDsf46V-15" value="" style="line;strokeWidth=1;fillColor=none;align=left;verticalAlign=middle;spacingTop=-1;spacingLeft=3;spacingRight=3;rotatable=0;labelPosition=right;points=[];portConstraint=eastwest;strokeColor=inherit;" vertex="1" parent="8kMF_SDLe7C6IxDsf46V-13">
          <mxGeometry y="52" width="260" height="8" as="geometry" />
        </mxCell>
        <mxCell id="8kMF_SDLe7C6IxDsf46V-16" value="+&amp;lt;create&amp;gt; PlanMantenimiento(version:String)" style="text;strokeColor=none;fillColor=none;align=left;verticalAlign=top;spacingLeft=4;spacingRight=4;overflow=hidden;rotatable=0;points=[[0,0.5],[1,0.5]];portConstraint=eastwest;whiteSpace=wrap;html=1;" vertex="1" parent="8kMF_SDLe7C6IxDsf46V-13">
          <mxGeometry y="60" width="260" height="26" as="geometry" />
        </mxCell>
        <mxCell id="8kMF_SDLe7C6IxDsf46V-63" style="edgeStyle=orthogonalEdgeStyle;rounded=0;orthogonalLoop=1;jettySize=auto;html=1;exitX=0.25;exitY=0;exitDx=0;exitDy=0;entryX=0.231;entryY=1.007;entryDx=0;entryDy=0;entryPerimeter=0;" edge="1" parent="1" source="8kMF_SDLe7C6IxDsf46V-21" target="8kMF_SDLe7C6IxDsf46V-12">
          <mxGeometry relative="1" as="geometry">
            <mxPoint x="720" y="820" as="targetPoint" />
          </mxGeometry>
        </mxCell>
        <mxCell id="8kMF_SDLe7C6IxDsf46V-21" value="Modelo" style="swimlane;fontStyle=1;align=center;verticalAlign=top;childLayout=stackLayout;horizontal=1;startSize=26;horizontalStack=0;resizeParent=1;resizeParentMax=0;resizeLast=0;collapsible=1;marginBottom=0;whiteSpace=wrap;html=1;" vertex="1" parent="1">
          <mxGeometry x="660" y="900" width="250" height="138" as="geometry" />
        </mxCell>
        <mxCell id="8kMF_SDLe7C6IxDsf46V-22" value="- nombre: String" style="text;strokeColor=none;fillColor=none;align=left;verticalAlign=top;spacingLeft=4;spacingRight=4;overflow=hidden;rotatable=0;points=[[0,0.5],[1,0.5]];portConstraint=eastwest;whiteSpace=wrap;html=1;" vertex="1" parent="8kMF_SDLe7C6IxDsf46V-21">
          <mxGeometry y="26" width="250" height="26" as="geometry" />
        </mxCell>
        <mxCell id="8kMF_SDLe7C6IxDsf46V-23" value="" style="line;strokeWidth=1;fillColor=none;align=left;verticalAlign=middle;spacingTop=-1;spacingLeft=3;spacingRight=3;rotatable=0;labelPosition=right;points=[];portConstraint=eastwest;strokeColor=inherit;" vertex="1" parent="8kMF_SDLe7C6IxDsf46V-21">
          <mxGeometry y="52" width="250" height="8" as="geometry" />
        </mxCell>
        <mxCell id="8kMF_SDLe7C6IxDsf46V-24" value="+&amp;lt;create&amp;gt; modelo(nombre:String)" style="text;strokeColor=none;fillColor=none;align=left;verticalAlign=top;spacingLeft=4;spacingRight=4;overflow=hidden;rotatable=0;points=[[0,0.5],[1,0.5]];portConstraint=eastwest;whiteSpace=wrap;html=1;" vertex="1" parent="8kMF_SDLe7C6IxDsf46V-21">
          <mxGeometry y="60" width="250" height="26" as="geometry" />
        </mxCell>
        <mxCell id="8kMF_SDLe7C6IxDsf46V-56" value="+ agregarTren(Tren tren)" style="text;strokeColor=none;fillColor=none;align=left;verticalAlign=top;spacingLeft=4;spacingRight=4;overflow=hidden;rotatable=0;points=[[0,0.5],[1,0.5]];portConstraint=eastwest;whiteSpace=wrap;html=1;" vertex="1" parent="8kMF_SDLe7C6IxDsf46V-21">
          <mxGeometry y="86" width="250" height="26" as="geometry" />
        </mxCell>
        <mxCell id="8kMF_SDLe7C6IxDsf46V-57" value="+ obtenerCostoPlanMantenimiento():double" style="text;strokeColor=none;fillColor=none;align=left;verticalAlign=top;spacingLeft=4;spacingRight=4;overflow=hidden;rotatable=0;points=[[0,0.5],[1,0.5]];portConstraint=eastwest;whiteSpace=wrap;html=1;" vertex="1" parent="8kMF_SDLe7C6IxDsf46V-21">
          <mxGeometry y="112" width="250" height="26" as="geometry" />
        </mxCell>
        <mxCell id="8kMF_SDLe7C6IxDsf46V-25" value="Viaje" style="swimlane;fontStyle=1;align=center;verticalAlign=top;childLayout=stackLayout;horizontal=1;startSize=26;horizontalStack=0;resizeParent=1;resizeParentMax=0;resizeLast=0;collapsible=1;marginBottom=0;whiteSpace=wrap;html=1;" vertex="1" parent="1">
          <mxGeometry x="680" y="450" width="210" height="130" as="geometry" />
        </mxCell>
        <mxCell id="8kMF_SDLe7C6IxDsf46V-26" value="- kmRodado: int" style="text;strokeColor=none;fillColor=none;align=left;verticalAlign=top;spacingLeft=4;spacingRight=4;overflow=hidden;rotatable=0;points=[[0,0.5],[1,0.5]];portConstraint=eastwest;whiteSpace=wrap;html=1;" vertex="1" parent="8kMF_SDLe7C6IxDsf46V-25">
          <mxGeometry y="26" width="210" height="26" as="geometry" />
        </mxCell>
        <mxCell id="8kMF_SDLe7C6IxDsf46V-29" value="- fecha: LocalDate" style="text;strokeColor=none;fillColor=none;align=left;verticalAlign=top;spacingLeft=4;spacingRight=4;overflow=hidden;rotatable=0;points=[[0,0.5],[1,0.5]];portConstraint=eastwest;whiteSpace=wrap;html=1;" vertex="1" parent="8kMF_SDLe7C6IxDsf46V-25">
          <mxGeometry y="52" width="210" height="26" as="geometry" />
        </mxCell>
        <mxCell id="8kMF_SDLe7C6IxDsf46V-27" value="" style="line;strokeWidth=1;fillColor=none;align=left;verticalAlign=middle;spacingTop=-1;spacingLeft=3;spacingRight=3;rotatable=0;labelPosition=right;points=[];portConstraint=eastwest;strokeColor=inherit;" vertex="1" parent="8kMF_SDLe7C6IxDsf46V-25">
          <mxGeometry y="78" width="210" height="8" as="geometry" />
        </mxCell>
        <mxCell id="8kMF_SDLe7C6IxDsf46V-28" value="+ &amp;lt;create&amp;gt; Viaje(kmRodado: int, fecha: LocalDate)" style="text;strokeColor=none;fillColor=none;align=left;verticalAlign=top;spacingLeft=4;spacingRight=4;overflow=hidden;rotatable=0;points=[[0,0.5],[1,0.5]];portConstraint=eastwest;whiteSpace=wrap;html=1;" vertex="1" parent="8kMF_SDLe7C6IxDsf46V-25">
          <mxGeometry y="86" width="210" height="44" as="geometry" />
        </mxCell>
        <mxCell id="8kMF_SDLe7C6IxDsf46V-30" value="Repuesto" style="swimlane;fontStyle=1;align=center;verticalAlign=top;childLayout=stackLayout;horizontal=1;startSize=26;horizontalStack=0;resizeParent=1;resizeParentMax=0;resizeLast=0;collapsible=1;marginBottom=0;whiteSpace=wrap;html=1;" vertex="1" parent="1">
          <mxGeometry x="20" y="1180" width="190" height="130" as="geometry" />
        </mxCell>
        <mxCell id="8kMF_SDLe7C6IxDsf46V-31" value="- nombre:String" style="text;strokeColor=none;fillColor=none;align=left;verticalAlign=top;spacingLeft=4;spacingRight=4;overflow=hidden;rotatable=0;points=[[0,0.5],[1,0.5]];portConstraint=eastwest;whiteSpace=wrap;html=1;" vertex="1" parent="8kMF_SDLe7C6IxDsf46V-30">
          <mxGeometry y="26" width="190" height="26" as="geometry" />
        </mxCell>
        <mxCell id="8kMF_SDLe7C6IxDsf46V-32" value="- costo: double" style="text;strokeColor=none;fillColor=none;align=left;verticalAlign=top;spacingLeft=4;spacingRight=4;overflow=hidden;rotatable=0;points=[[0,0.5],[1,0.5]];portConstraint=eastwest;whiteSpace=wrap;html=1;" vertex="1" parent="8kMF_SDLe7C6IxDsf46V-30">
          <mxGeometry y="52" width="190" height="26" as="geometry" />
        </mxCell>
        <mxCell id="8kMF_SDLe7C6IxDsf46V-33" value="" style="line;strokeWidth=1;fillColor=none;align=left;verticalAlign=middle;spacingTop=-1;spacingLeft=3;spacingRight=3;rotatable=0;labelPosition=right;points=[];portConstraint=eastwest;strokeColor=inherit;" vertex="1" parent="8kMF_SDLe7C6IxDsf46V-30">
          <mxGeometry y="78" width="190" height="8" as="geometry" />
        </mxCell>
        <mxCell id="8kMF_SDLe7C6IxDsf46V-34" value="+ &amp;lt;create&amp;gt; Repuesto(nombre: String, costo: double)" style="text;strokeColor=none;fillColor=none;align=left;verticalAlign=top;spacingLeft=4;spacingRight=4;overflow=hidden;rotatable=0;points=[[0,0.5],[1,0.5]];portConstraint=eastwest;whiteSpace=wrap;html=1;" vertex="1" parent="8kMF_SDLe7C6IxDsf46V-30">
          <mxGeometry y="86" width="190" height="44" as="geometry" />
        </mxCell>
        <mxCell id="8kMF_SDLe7C6IxDsf46V-35" value="&amp;lt;abstract&amp;gt; Tarea" style="swimlane;fontStyle=1;align=center;verticalAlign=top;childLayout=stackLayout;horizontal=1;startSize=26;horizontalStack=0;resizeParent=1;resizeParentMax=0;resizeLast=0;collapsible=1;marginBottom=0;whiteSpace=wrap;html=1;" vertex="1" parent="1">
          <mxGeometry x="320" y="1180" width="210" height="256" as="geometry" />
        </mxCell>
        <mxCell id="8kMF_SDLe7C6IxDsf46V-36" value="- id: String" style="text;strokeColor=none;fillColor=none;align=left;verticalAlign=top;spacingLeft=4;spacingRight=4;overflow=hidden;rotatable=0;points=[[0,0.5],[1,0.5]];portConstraint=eastwest;whiteSpace=wrap;html=1;" vertex="1" parent="8kMF_SDLe7C6IxDsf46V-35">
          <mxGeometry y="26" width="210" height="26" as="geometry" />
        </mxCell>
        <mxCell id="8kMF_SDLe7C6IxDsf46V-40" value="- costoBase: double" style="text;strokeColor=none;fillColor=none;align=left;verticalAlign=top;spacingLeft=4;spacingRight=4;overflow=hidden;rotatable=0;points=[[0,0.5],[1,0.5]];portConstraint=eastwest;whiteSpace=wrap;html=1;" vertex="1" parent="8kMF_SDLe7C6IxDsf46V-35">
          <mxGeometry y="52" width="210" height="26" as="geometry" />
        </mxCell>
        <mxCell id="8kMF_SDLe7C6IxDsf46V-37" value="" style="line;strokeWidth=1;fillColor=none;align=left;verticalAlign=middle;spacingTop=-1;spacingLeft=3;spacingRight=3;rotatable=0;labelPosition=right;points=[];portConstraint=eastwest;strokeColor=inherit;" vertex="1" parent="8kMF_SDLe7C6IxDsf46V-35">
          <mxGeometry y="78" width="210" height="8" as="geometry" />
        </mxCell>
        <mxCell id="8kMF_SDLe7C6IxDsf46V-49" value="+ &amp;lt;create&amp;gt; Tarea(id:String, costoBase:double)" style="text;strokeColor=none;fillColor=none;align=left;verticalAlign=top;spacingLeft=4;spacingRight=4;overflow=hidden;rotatable=0;points=[[0,0.5],[1,0.5]];portConstraint=eastwest;whiteSpace=wrap;html=1;" vertex="1" parent="8kMF_SDLe7C6IxDsf46V-35">
          <mxGeometry y="86" width="210" height="38" as="geometry" />
        </mxCell>
        <mxCell id="8kMF_SDLe7C6IxDsf46V-38" value="+ agregarRepuesto(Repuesto repuesto)" style="text;strokeColor=none;fillColor=none;align=left;verticalAlign=top;spacingLeft=4;spacingRight=4;overflow=hidden;rotatable=0;points=[[0,0.5],[1,0.5]];portConstraint=eastwest;whiteSpace=wrap;html=1;" vertex="1" parent="8kMF_SDLe7C6IxDsf46V-35">
          <mxGeometry y="124" width="210" height="40" as="geometry" />
        </mxCell>
        <mxCell id="8kMF_SDLe7C6IxDsf46V-50" value="+ obtenerCostoTarea(Tren tren):double" style="text;strokeColor=none;fillColor=none;align=left;verticalAlign=top;spacingLeft=4;spacingRight=4;overflow=hidden;rotatable=0;points=[[0,0.5],[1,0.5]];portConstraint=eastwest;whiteSpace=wrap;html=1;" vertex="1" parent="8kMF_SDLe7C6IxDsf46V-35">
          <mxGeometry y="164" width="210" height="40" as="geometry" />
        </mxCell>
        <mxCell id="8kMF_SDLe7C6IxDsf46V-52" value="+ obtenerCostoRepuestos(): double" style="text;strokeColor=none;fillColor=none;align=left;verticalAlign=top;spacingLeft=4;spacingRight=4;overflow=hidden;rotatable=0;points=[[0,0.5],[1,0.5]];portConstraint=eastwest;whiteSpace=wrap;html=1;" vertex="1" parent="8kMF_SDLe7C6IxDsf46V-35">
          <mxGeometry y="204" width="210" height="26" as="geometry" />
        </mxCell>
        <mxCell id="8kMF_SDLe7C6IxDsf46V-51" value="# calcularAdicional(Tren tren): double" style="text;strokeColor=none;fillColor=none;align=left;verticalAlign=top;spacingLeft=4;spacingRight=4;overflow=hidden;rotatable=0;points=[[0,0.5],[1,0.5]];portConstraint=eastwest;whiteSpace=wrap;html=1;" vertex="1" parent="8kMF_SDLe7C6IxDsf46V-35">
          <mxGeometry y="230" width="210" height="26" as="geometry" />
        </mxCell>
        <mxCell id="8kMF_SDLe7C6IxDsf46V-58" style="edgeStyle=orthogonalEdgeStyle;rounded=0;orthogonalLoop=1;jettySize=auto;html=1;endArrow=block;endFill=0;" edge="1" parent="1" source="8kMF_SDLe7C6IxDsf46V-41">
          <mxGeometry relative="1" as="geometry">
            <mxPoint x="380" y="1440" as="targetPoint" />
          </mxGeometry>
        </mxCell>
        <mxCell id="8kMF_SDLe7C6IxDsf46V-41" value="TareaPeriodica" style="swimlane;fontStyle=1;align=center;verticalAlign=top;childLayout=stackLayout;horizontal=1;startSize=26;horizontalStack=0;resizeParent=1;resizeParentMax=0;resizeLast=0;collapsible=1;marginBottom=0;whiteSpace=wrap;html=1;" vertex="1" parent="1">
          <mxGeometry x="240" y="1490" width="160" height="170" as="geometry" />
        </mxCell>
        <mxCell id="8kMF_SDLe7C6IxDsf46V-42" value="- cantDias: int" style="text;strokeColor=none;fillColor=none;align=left;verticalAlign=top;spacingLeft=4;spacingRight=4;overflow=hidden;rotatable=0;points=[[0,0.5],[1,0.5]];portConstraint=eastwest;whiteSpace=wrap;html=1;" vertex="1" parent="8kMF_SDLe7C6IxDsf46V-41">
          <mxGeometry y="26" width="160" height="26" as="geometry" />
        </mxCell>
        <mxCell id="8kMF_SDLe7C6IxDsf46V-43" value="" style="line;strokeWidth=1;fillColor=none;align=left;verticalAlign=middle;spacingTop=-1;spacingLeft=3;spacingRight=3;rotatable=0;labelPosition=right;points=[];portConstraint=eastwest;strokeColor=inherit;" vertex="1" parent="8kMF_SDLe7C6IxDsf46V-41">
          <mxGeometry y="52" width="160" height="8" as="geometry" />
        </mxCell>
        <mxCell id="8kMF_SDLe7C6IxDsf46V-44" value="+&amp;lt;create&amp;gt; TareaPeriodica(id: String, costoBase: double, cantDias: int)" style="text;strokeColor=none;fillColor=none;align=left;verticalAlign=top;spacingLeft=4;spacingRight=4;overflow=hidden;rotatable=0;points=[[0,0.5],[1,0.5]];portConstraint=eastwest;whiteSpace=wrap;html=1;" vertex="1" parent="8kMF_SDLe7C6IxDsf46V-41">
          <mxGeometry y="60" width="160" height="70" as="geometry" />
        </mxCell>
        <mxCell id="8kMF_SDLe7C6IxDsf46V-54" value="# calcularAdicional(Tren tren): double" style="text;strokeColor=none;fillColor=none;align=left;verticalAlign=top;spacingLeft=4;spacingRight=4;overflow=hidden;rotatable=0;points=[[0,0.5],[1,0.5]];portConstraint=eastwest;whiteSpace=wrap;html=1;" vertex="1" parent="8kMF_SDLe7C6IxDsf46V-41">
          <mxGeometry y="130" width="160" height="40" as="geometry" />
        </mxCell>
        <mxCell id="8kMF_SDLe7C6IxDsf46V-59" style="edgeStyle=orthogonalEdgeStyle;rounded=0;orthogonalLoop=1;jettySize=auto;html=1;exitX=0.5;exitY=0;exitDx=0;exitDy=0;endArrow=block;endFill=0;" edge="1" parent="1" source="8kMF_SDLe7C6IxDsf46V-45">
          <mxGeometry relative="1" as="geometry">
            <mxPoint x="460" y="1440" as="targetPoint" />
          </mxGeometry>
        </mxCell>
        <mxCell id="8kMF_SDLe7C6IxDsf46V-45" value="TareaPeriodica" style="swimlane;fontStyle=1;align=center;verticalAlign=top;childLayout=stackLayout;horizontal=1;startSize=26;horizontalStack=0;resizeParent=1;resizeParentMax=0;resizeLast=0;collapsible=1;marginBottom=0;whiteSpace=wrap;html=1;" vertex="1" parent="1">
          <mxGeometry x="450" y="1490" width="160" height="170" as="geometry" />
        </mxCell>
        <mxCell id="8kMF_SDLe7C6IxDsf46V-46" value="- cantKms: int" style="text;strokeColor=none;fillColor=none;align=left;verticalAlign=top;spacingLeft=4;spacingRight=4;overflow=hidden;rotatable=0;points=[[0,0.5],[1,0.5]];portConstraint=eastwest;whiteSpace=wrap;html=1;" vertex="1" parent="8kMF_SDLe7C6IxDsf46V-45">
          <mxGeometry y="26" width="160" height="26" as="geometry" />
        </mxCell>
        <mxCell id="8kMF_SDLe7C6IxDsf46V-47" value="" style="line;strokeWidth=1;fillColor=none;align=left;verticalAlign=middle;spacingTop=-1;spacingLeft=3;spacingRight=3;rotatable=0;labelPosition=right;points=[];portConstraint=eastwest;strokeColor=inherit;" vertex="1" parent="8kMF_SDLe7C6IxDsf46V-45">
          <mxGeometry y="52" width="160" height="8" as="geometry" />
        </mxCell>
        <mxCell id="8kMF_SDLe7C6IxDsf46V-53" value="+&amp;lt;create&amp;gt; TareaPeriodica(id: String, costoBase: double, cantKms: int)" style="text;strokeColor=none;fillColor=none;align=left;verticalAlign=top;spacingLeft=4;spacingRight=4;overflow=hidden;rotatable=0;points=[[0,0.5],[1,0.5]];portConstraint=eastwest;whiteSpace=wrap;html=1;" vertex="1" parent="8kMF_SDLe7C6IxDsf46V-45">
          <mxGeometry y="60" width="160" height="70" as="geometry" />
        </mxCell>
        <mxCell id="8kMF_SDLe7C6IxDsf46V-55" value="# calcularAdicional(Tren tren): double" style="text;strokeColor=none;fillColor=none;align=left;verticalAlign=top;spacingLeft=4;spacingRight=4;overflow=hidden;rotatable=0;points=[[0,0.5],[1,0.5]];portConstraint=eastwest;whiteSpace=wrap;html=1;" vertex="1" parent="8kMF_SDLe7C6IxDsf46V-45">
          <mxGeometry y="130" width="160" height="40" as="geometry" />
        </mxCell>
        <mxCell id="8kMF_SDLe7C6IxDsf46V-61" style="edgeStyle=orthogonalEdgeStyle;rounded=0;orthogonalLoop=1;jettySize=auto;html=1;entryX=1;entryY=0.5;entryDx=0;entryDy=0;" edge="1" parent="1" source="8kMF_SDLe7C6IxDsf46V-36" target="8kMF_SDLe7C6IxDsf46V-31">
          <mxGeometry relative="1" as="geometry" />
        </mxCell>
        <mxCell id="8kMF_SDLe7C6IxDsf46V-64" style="edgeStyle=orthogonalEdgeStyle;rounded=0;orthogonalLoop=1;jettySize=auto;html=1;exitX=0.75;exitY=0;exitDx=0;exitDy=0;entryX=0.772;entryY=1;entryDx=0;entryDy=0;entryPerimeter=0;startArrow=classic;startFill=1;endArrow=none;endFill=0;" edge="1" parent="1" source="8kMF_SDLe7C6IxDsf46V-21" target="8kMF_SDLe7C6IxDsf46V-12">
          <mxGeometry relative="1" as="geometry" />
        </mxCell>
        <mxCell id="8kMF_SDLe7C6IxDsf46V-65" style="edgeStyle=orthogonalEdgeStyle;rounded=0;orthogonalLoop=1;jettySize=auto;html=1;entryX=0.75;entryY=0;entryDx=0;entryDy=0;exitX=-0.003;exitY=0.966;exitDx=0;exitDy=0;exitPerimeter=0;" edge="1" parent="1" source="8kMF_SDLe7C6IxDsf46V-11" target="8kMF_SDLe7C6IxDsf46V-5">
          <mxGeometry relative="1" as="geometry">
            <Array as="points">
              <mxPoint x="669" y="780" />
              <mxPoint x="550" y="780" />
            </Array>
          </mxGeometry>
        </mxCell>
        <mxCell id="8kMF_SDLe7C6IxDsf46V-66" value="1 modelo" style="text;html=1;align=center;verticalAlign=middle;resizable=0;points=[];autosize=1;strokeColor=none;fillColor=none;" vertex="1" parent="1">
          <mxGeometry x="845" y="830" width="70" height="30" as="geometry" />
        </mxCell>
        <mxCell id="8kMF_SDLe7C6IxDsf46V-67" value="0...* trenes" style="text;html=1;align=center;verticalAlign=middle;resizable=0;points=[];autosize=1;strokeColor=none;fillColor=none;" vertex="1" parent="1">
          <mxGeometry x="650" y="869" width="80" height="30" as="geometry" />
        </mxCell>
        <mxCell id="8kMF_SDLe7C6IxDsf46V-68" value="0...* tareasRealizadas" style="text;html=1;align=center;verticalAlign=middle;resizable=0;points=[];autosize=1;strokeColor=none;fillColor=none;" vertex="1" parent="1">
          <mxGeometry x="540" y="750" width="140" height="30" as="geometry" />
        </mxCell>
        <mxCell id="8kMF_SDLe7C6IxDsf46V-69" value="0...* viajes" style="text;html=1;align=center;verticalAlign=middle;resizable=0;points=[];autosize=1;strokeColor=none;fillColor=none;" vertex="1" parent="1">
          <mxGeometry x="710" y="610" width="80" height="30" as="geometry" />
        </mxCell>
        <mxCell id="8kMF_SDLe7C6IxDsf46V-75" value="1 planMantenimiento" style="text;html=1;align=center;verticalAlign=middle;resizable=0;points=[];autosize=1;strokeColor=none;fillColor=none;" vertex="1" parent="1">
          <mxGeometry x="850" y="1038" width="130" height="30" as="geometry" />
        </mxCell>
        <mxCell id="8kMF_SDLe7C6IxDsf46V-76" value="0...* modelos" style="text;html=1;align=center;verticalAlign=middle;resizable=0;points=[];autosize=1;strokeColor=none;fillColor=none;" vertex="1" parent="1">
          <mxGeometry x="720" y="1150" width="90" height="30" as="geometry" />
        </mxCell>
        <mxCell id="8kMF_SDLe7C6IxDsf46V-77" value="0...* repuestos" style="text;html=1;align=center;verticalAlign=middle;resizable=0;points=[];autosize=1;strokeColor=none;fillColor=none;" vertex="1" parent="1">
          <mxGeometry x="220" y="1190" width="100" height="30" as="geometry" />
        </mxCell>
        <mxCell id="8kMF_SDLe7C6IxDsf46V-78" style="edgeStyle=orthogonalEdgeStyle;rounded=0;orthogonalLoop=1;jettySize=auto;html=1;entryX=1;entryY=0.5;entryDx=0;entryDy=0;" edge="1" parent="1" source="8kMF_SDLe7C6IxDsf46V-14" target="8kMF_SDLe7C6IxDsf46V-36">
          <mxGeometry relative="1" as="geometry" />
        </mxCell>
        <mxCell id="8kMF_SDLe7C6IxDsf46V-79" value="0...* tareas" style="text;html=1;align=center;verticalAlign=middle;resizable=0;points=[];autosize=1;strokeColor=none;fillColor=none;" vertex="1" parent="1">
          <mxGeometry x="570" y="1190" width="80" height="30" as="geometry" />
        </mxCell>
        <mxCell id="8kMF_SDLe7C6IxDsf46V-80" style="edgeStyle=orthogonalEdgeStyle;rounded=0;orthogonalLoop=1;jettySize=auto;html=1;entryX=0.058;entryY=-0.002;entryDx=0;entryDy=0;entryPerimeter=0;exitX=0.641;exitY=0.951;exitDx=0;exitDy=0;exitPerimeter=0;" edge="1" parent="1" source="8kMF_SDLe7C6IxDsf46V-91" target="8kMF_SDLe7C6IxDsf46V-13">
          <mxGeometry relative="1" as="geometry">
            <mxPoint x="80" y="1070" as="sourcePoint" />
            <mxPoint x="640" y="1160" as="targetPoint" />
            <Array as="points">
              <mxPoint x="80" y="1074" />
              <mxPoint x="80" y="1140" />
              <mxPoint x="670" y="1140" />
            </Array>
          </mxGeometry>
        </mxCell>
        <mxCell id="8kMF_SDLe7C6IxDsf46V-81" style="edgeStyle=orthogonalEdgeStyle;rounded=0;orthogonalLoop=1;jettySize=auto;html=1;entryX=0.005;entryY=0.154;entryDx=0;entryDy=0;entryPerimeter=0;" edge="1" parent="1" source="8kMF_SDLe7C6IxDsf46V-1" target="8kMF_SDLe7C6IxDsf46V-20">
          <mxGeometry relative="1" as="geometry">
            <Array as="points">
              <mxPoint x="290" y="930" />
              <mxPoint x="290" y="929" />
            </Array>
          </mxGeometry>
        </mxCell>
        <mxCell id="8kMF_SDLe7C6IxDsf46V-82" style="edgeStyle=orthogonalEdgeStyle;rounded=0;orthogonalLoop=1;jettySize=auto;html=1;entryX=-0.007;entryY=0.715;entryDx=0;entryDy=0;entryPerimeter=0;" edge="1" parent="1" target="8kMF_SDLe7C6IxDsf46V-17">
          <mxGeometry relative="1" as="geometry">
            <mxPoint x="70" y="800" as="sourcePoint" />
            <mxPoint x="580.23" y="633.5800000000002" as="targetPoint" />
            <Array as="points">
              <mxPoint x="70" y="737" />
            </Array>
          </mxGeometry>
        </mxCell>
        <mxCell id="8kMF_SDLe7C6IxDsf46V-84" value="0...* planesMantenimiento" style="text;html=1;align=center;verticalAlign=middle;resizable=0;points=[];autosize=1;strokeColor=none;fillColor=none;" vertex="1" parent="1">
          <mxGeometry x="80" y="1110" width="160" height="30" as="geometry" />
        </mxCell>
        <mxCell id="8kMF_SDLe7C6IxDsf46V-85" value="0...* tareasRealizadas" style="text;html=1;align=center;verticalAlign=middle;resizable=0;points=[];autosize=1;strokeColor=none;fillColor=none;" vertex="1" parent="1">
          <mxGeometry x="220" y="890" width="140" height="30" as="geometry" />
        </mxCell>
        <mxCell id="8kMF_SDLe7C6IxDsf46V-93" value="0...* trenes" style="text;html=1;align=center;verticalAlign=middle;resizable=0;points=[];autosize=1;strokeColor=none;fillColor=none;" vertex="1" parent="1">
          <mxGeometry x="70" y="710" width="80" height="30" as="geometry" />
        </mxCell>
      </root>
    </mxGraphModel>
  </diagram>
</mxfile>
